<svg width="50" height="60" viewBox="0 0 50 60" fill="none" xmlns="http://www.w3.org/2000/svg">
<path d="M0 17.2345C0 15.4445 0.956876 13.7911 2.50889 12.8993L22.4704 1.429C24.0106 0.54397 25.9047 0.542572 27.4462 1.42532L47.4847 12.9005C49.0403 13.7913 50 15.4468 50 17.2394V40.2505C50 42.0206 49.0641 43.6588 47.5391 44.5577L27.5008 56.3704C25.9317 57.2954 23.9837 57.2939 22.416 56.3666L2.45441 44.5589C0.93315 43.6591 0 42.0229 0 40.2554V17.2345Z" fill="#3C1B1F"/>
<path d="M7.69232 16.1968L24.9573 6.91736V46.5657L7.69232 37.2863V16.1968Z" fill="#5D3B32"/>
<path d="M42.2222 16.1968L24.9573 6.91736V46.5657L42.2222 37.2863V16.1968Z" fill="#775542"/>
<path d="M24.2092 31.5672C24.5313 31.3681 24.9396 31.365 25.2647 31.5593L41.6584 41.3529C42.3045 41.7389 42.3057 42.6637 41.6606 43.0514L25.2924 52.8859C24.9666 53.0816 24.5567 53.0788 24.2337 52.8786L8.36748 43.0428C7.73878 42.6531 7.73935 41.7486 8.36856 41.3596L24.2092 31.5672Z" fill="#E2BE81" fill-opacity="0.4"/>
</svg>
