<svg width="150" height="150" viewBox="0 0 150 150" fill="none" xmlns="http://www.w3.org/2000/svg">
<rect width="150" height="150" rx="20" fill="#E2BE81"/>
<path d="M35 46.7838C35 45.0039 35.9462 43.3583 37.4843 42.4628L72.3068 22.1894C73.8595 21.2855 75.7777 21.284 77.3317 22.1857L112.282 42.464C113.824 43.3585 114.773 45.0062 114.773 46.7887V87.5715C114.773 89.3314 113.848 90.9617 112.337 91.8642L77.3864 112.739C75.805 113.683 73.8323 113.682 72.2523 112.735L37.4297 91.8653C35.9224 90.9619 35 89.3337 35 87.5765V46.7838Z" fill="#3C1B1F"/>
<path d="M47.2727 46.9092L74.8182 31.9092V96.0001L47.2727 81.0001V46.9092Z" fill="#5D3B32"/>
<path d="M102.364 46.9092L74.8182 31.9092V96.0001L102.364 81.0001V46.9092Z" fill="#775542"/>
<path d="M73.4191 71.8839C74.0591 71.4831 74.8703 71.4769 75.5163 71.8679L100.909 87.2373C102.193 88.0144 102.195 89.8762 100.913 90.6566L75.5611 106.09C74.9137 106.484 74.0992 106.478 73.4573 106.075L48.8821 90.6394C47.6328 89.8548 47.634 88.0339 48.8842 87.2508L73.4191 71.8839Z" fill="#E2BE81" fill-opacity="0.4"/>
<path d="M27.42 125.364V125.736H32.1V125.364C32.1 125.148 32.08 124.948 32.04 124.764C32.008 124.58 31.964 124.408 31.908 124.248L31.08 122.292C30.992 122.084 30.9 121.912 30.804 121.776C30.708 121.632 30.548 121.56 30.324 121.56H29.148C28.908 121.56 28.74 121.632 28.644 121.776C28.548 121.912 28.46 122.08 28.38 122.28L27.612 124.248C27.556 124.408 27.508 124.58 27.468 124.764C27.436 124.948 27.42 125.148 27.42 125.364ZM29.34 122.88C29.372 122.808 29.404 122.756 29.436 122.724C29.476 122.692 29.52 122.676 29.568 122.676H29.868C29.916 122.676 29.956 122.692 29.988 122.724C30.028 122.756 30.064 122.808 30.096 122.88L30.66 124.704H28.776L29.34 122.88ZM32.1 127.92V125.856H27.42V127.92H27.3V125.364C27.3 125.14 27.316 124.936 27.348 124.752C27.388 124.56 27.44 124.376 27.504 124.2L28.272 122.232C28.36 122.008 28.46 121.82 28.572 121.668C28.684 121.516 28.876 121.44 29.148 121.44H30.324C30.588 121.44 30.772 121.516 30.876 121.668C30.988 121.82 31.092 122.012 31.188 122.244L32.016 124.2C32.08 124.376 32.128 124.56 32.16 124.752C32.2 124.936 32.22 125.14 32.22 125.364V127.92H32.1ZM28.656 128.568V126.888H30.78V128.568C30.78 128.72 30.816 128.832 30.888 128.904C30.968 128.968 31.088 129 31.248 129H33.06C33.212 129 33.32 128.968 33.384 128.904C33.456 128.832 33.492 128.72 33.492 128.568V125.4C33.492 125.16 33.452 124.884 33.372 124.572C33.3 124.26 33.184 123.896 33.024 123.48L31.98 120.756C31.932 120.62 31.856 120.52 31.752 120.456C31.656 120.392 31.532 120.36 31.38 120.36H28.152C27.992 120.36 27.86 120.392 27.756 120.456C27.66 120.52 27.588 120.62 27.54 120.756L26.496 123.48C26.336 123.896 26.216 124.26 26.136 124.572C26.064 124.884 26.028 125.16 26.028 125.4V128.568C26.028 128.72 26.06 128.832 26.124 128.904C26.196 128.968 26.308 129 26.46 129H28.224C28.376 129 28.484 128.968 28.548 128.904C28.62 128.832 28.656 128.72 28.656 128.568ZM27.048 130.308C27.016 130.34 26.964 130.368 26.892 130.392C26.828 130.416 26.756 130.428 26.676 130.428H24.912C24.72 130.428 24.58 130.384 24.492 130.296C24.404 130.208 24.36 130.068 24.36 129.876V126.708C24.36 126.46 24.396 126.18 24.468 125.868C24.548 125.548 24.672 125.172 24.84 124.74L25.872 122.028C25.896 121.956 25.924 121.896 25.956 121.848C25.996 121.792 26.036 121.744 26.076 121.704L26.088 121.692L27.624 120.408C27.688 120.352 27.764 120.312 27.852 120.288C27.94 120.256 28.04 120.24 28.152 120.24H31.38C31.564 120.24 31.712 120.28 31.824 120.36C31.944 120.432 32.032 120.548 32.088 120.708L33.132 123.432C33.3 123.864 33.42 124.24 33.492 124.56C33.572 124.872 33.612 125.152 33.612 125.4V128.568C33.612 128.672 33.596 128.76 33.564 128.832C33.54 128.904 33.5 128.964 33.444 129.012L31.884 130.308C31.852 130.34 31.8 130.368 31.728 130.392C31.664 130.416 31.592 130.428 31.512 130.428H29.7C29.5 130.428 29.352 130.38 29.256 130.284C29.16 130.196 29.112 130.06 29.112 129.876V128.316H28.776V128.568C28.776 128.672 28.76 128.76 28.728 128.832C28.704 128.904 28.664 128.964 28.608 129.012L27.048 130.308ZM41.2209 130.428H37.4409C36.3929 130.428 35.6169 130.156 35.1129 129.612C34.6169 129.068 34.3689 128.364 34.3689 127.5V124.116C34.3689 123.676 34.4329 123.296 34.5609 122.976C34.6889 122.656 34.8769 122.388 35.1249 122.172L36.6729 120.864C36.9209 120.656 37.2369 120.5 37.6209 120.396C38.0129 120.292 38.4689 120.24 38.9889 120.24H41.9889C42.1809 120.24 42.3209 120.284 42.4089 120.372C42.4969 120.46 42.5409 120.6 42.5409 120.792V122.244C42.5409 122.348 42.5249 122.436 42.4929 122.508C42.4689 122.58 42.4289 122.64 42.3729 122.688L40.8129 123.984C40.7809 124.016 40.7289 124.044 40.6569 124.068C40.5929 124.092 40.5209 124.104 40.4409 124.104H38.8809V125.832C38.8889 125.816 38.9009 125.8 38.9169 125.784C38.9409 125.76 38.9609 125.74 38.9769 125.724L40.5249 124.416C40.5649 124.384 40.6169 124.36 40.6809 124.344C40.7529 124.32 40.8289 124.308 40.9089 124.308H42.7689C42.9609 124.308 43.1009 124.352 43.1889 124.44C43.2769 124.528 43.3209 124.668 43.3209 124.86V128.568C43.3209 128.672 43.3049 128.76 43.2729 128.832C43.2489 128.904 43.2089 128.964 43.1529 129.012L41.5929 130.308C41.5609 130.34 41.5089 130.368 41.4369 130.392C41.3729 130.416 41.3009 130.428 41.2209 130.428ZM42.7689 129C42.9209 129 43.0289 128.968 43.0929 128.904C43.1649 128.832 43.2009 128.72 43.2009 128.568V124.86C43.2009 124.708 43.1649 124.6 43.0929 124.536C43.0289 124.464 42.9209 124.428 42.7689 124.428H40.9089C40.7569 124.428 40.6449 124.464 40.5729 124.536C40.5089 124.6 40.4769 124.708 40.4769 124.86V126.732H39.3129C39.1289 126.732 38.9889 126.684 38.8929 126.588C38.8049 126.492 38.7609 126.344 38.7609 126.144V123.276C38.7609 123.076 38.8209 122.928 38.9409 122.832C39.0609 122.728 39.2449 122.676 39.4929 122.676H41.9889C42.1409 122.676 42.2489 122.644 42.3129 122.58C42.3849 122.508 42.4209 122.396 42.4209 122.244V120.792C42.4209 120.64 42.3849 120.532 42.3129 120.468C42.2489 120.396 42.1409 120.36 41.9889 120.36H38.9889C37.9889 120.36 37.2449 120.56 36.7569 120.96C36.2769 121.36 36.0369 121.976 36.0369 122.808V126.552C36.0369 127.384 36.2769 128 36.7569 128.4C37.2449 128.8 37.9889 129 38.9889 129H42.7689ZM39.5049 127.92C39.0649 127.92 38.7049 127.892 38.4249 127.836C38.1449 127.78 37.9249 127.692 37.7649 127.572C37.6049 127.444 37.4929 127.284 37.4289 127.092C37.3729 126.892 37.3449 126.652 37.3449 126.372V123.012C37.3449 122.444 37.4729 122.04 37.7289 121.8C37.9849 121.56 38.4969 121.44 39.2649 121.44H41.3409V121.56H39.2649C38.5609 121.56 38.0849 121.672 37.8369 121.896C37.5889 122.112 37.4649 122.484 37.4649 123.012V126.372C37.4649 126.892 37.6009 127.26 37.8729 127.476C38.1529 127.692 38.6969 127.8 39.5049 127.8H41.7729V125.508H41.8929V127.92H39.5049ZM50.3123 130.428H44.7443C44.5523 130.428 44.4123 130.384 44.3243 130.296C44.2363 130.208 44.1923 130.068 44.1923 129.876V122.1C44.1923 121.996 44.2043 121.908 44.2283 121.836C44.2603 121.764 44.3043 121.704 44.3603 121.656L45.9083 120.348C45.9483 120.316 46.0003 120.292 46.0643 120.276C46.1363 120.252 46.2123 120.24 46.2923 120.24H51.8603C52.0523 120.24 52.1923 120.284 52.2803 120.372C52.3683 120.46 52.4123 120.6 52.4123 120.792V122.196C52.4123 122.3 52.3963 122.388 52.3643 122.46C52.3403 122.532 52.3003 122.592 52.2443 122.64L51.2123 123.492C51.2923 123.532 51.3483 123.592 51.3803 123.672C51.4203 123.752 51.4403 123.856 51.4403 123.984V125.268C51.4403 125.372 51.4243 125.46 51.3923 125.532C51.3683 125.604 51.3283 125.664 51.2723 125.712L50.2043 126.612H51.8603C52.0523 126.612 52.1923 126.656 52.2803 126.744C52.3683 126.832 52.4123 126.972 52.4123 127.164V128.568C52.4123 128.672 52.3963 128.76 52.3643 128.832C52.3403 128.904 52.3003 128.964 52.2443 129.012L50.6843 130.308C50.6523 130.34 50.6003 130.368 50.5283 130.392C50.4643 130.416 50.3923 130.428 50.3123 130.428ZM51.8603 129C52.0123 129 52.1203 128.968 52.1843 128.904C52.2563 128.832 52.2923 128.72 52.2923 128.568V127.164C52.2923 127.012 52.2563 126.904 52.1843 126.84C52.1203 126.768 52.0123 126.732 51.8603 126.732H48.5483V125.7H50.8883C51.0403 125.7 51.1483 125.668 51.2123 125.604C51.2843 125.532 51.3203 125.42 51.3203 125.268V123.984C51.3203 123.832 51.2843 123.724 51.2123 123.66C51.1483 123.588 51.0403 123.552 50.8883 123.552H48.5483V122.628H51.8603C52.0123 122.628 52.1203 122.596 52.1843 122.532C52.2563 122.46 52.2923 122.348 52.2923 122.196V120.792C52.2923 120.64 52.2563 120.532 52.1843 120.468C52.1203 120.396 52.0123 120.36 51.8603 120.36H46.2923C46.1403 120.36 46.0283 120.396 45.9563 120.468C45.8923 120.532 45.8603 120.64 45.8603 120.792V128.568C45.8603 128.72 45.8923 128.832 45.9563 128.904C46.0283 128.968 46.1403 129 46.2923 129H51.8603ZM51.2123 127.8V127.92H47.1683V121.44H51.2123V121.56H47.2883V124.572H50.2403V124.692H47.2883V127.8H51.2123ZM56.4912 121.536L60.9072 126.504V121.44H61.0272V127.92H60.9072V126.684L56.3712 121.596C56.3632 121.588 56.3512 121.58 56.3352 121.572C56.3272 121.564 56.3192 121.56 56.3112 121.56C56.3032 121.56 56.2952 121.564 56.2872 121.572C56.2872 121.58 56.2872 121.588 56.2872 121.596V127.92H56.1672V121.572C56.1672 121.524 56.1832 121.488 56.2152 121.464C56.2472 121.44 56.2792 121.428 56.3112 121.428C56.3432 121.428 56.3712 121.436 56.3952 121.452C56.4192 121.468 56.4512 121.496 56.4912 121.536ZM57.1392 129C57.2912 129 57.3992 128.968 57.4632 128.904C57.5352 128.832 57.5712 128.72 57.5712 128.568V124.608L59.6232 127.092V128.568C59.6232 128.72 59.6552 128.832 59.7192 128.904C59.7912 128.968 59.9032 129 60.0552 129H61.8552C62.0072 129 62.1152 128.968 62.1792 128.904C62.2512 128.832 62.2872 128.72 62.2872 128.568V120.792C62.2872 120.64 62.2512 120.532 62.1792 120.468C62.1152 120.396 62.0072 120.36 61.8552 120.36H60.0552C59.9032 120.36 59.7912 120.396 59.7192 120.468C59.6552 120.532 59.6232 120.64 59.6232 120.792V123.348L57.2952 120.684C57.1912 120.564 57.0832 120.48 56.9712 120.432C56.8672 120.384 56.7392 120.36 56.5872 120.36H55.3392C55.1872 120.36 55.0752 120.396 55.0032 120.468C54.9392 120.532 54.9072 120.64 54.9072 120.792V128.568C54.9072 128.72 54.9392 128.832 55.0032 128.904C55.0752 128.968 55.1872 129 55.3392 129H57.1392ZM57.5232 129.012L55.9632 130.308C55.9312 130.34 55.8792 130.368 55.8072 130.392C55.7432 130.416 55.6712 130.428 55.5912 130.428H53.7912C53.5992 130.428 53.4592 130.384 53.3712 130.296C53.2832 130.208 53.2392 130.068 53.2392 129.876V122.1C53.2392 121.996 53.2512 121.908 53.2752 121.836C53.3072 121.764 53.3512 121.704 53.4072 121.656L54.9552 120.348C54.9952 120.316 55.0472 120.292 55.1112 120.276C55.1832 120.252 55.2592 120.24 55.3392 120.24H56.5872C56.7632 120.24 56.9112 120.268 57.0312 120.324C57.1512 120.38 57.2712 120.472 57.3912 120.6L58.2192 121.56L59.6712 120.348C59.7112 120.316 59.7632 120.292 59.8272 120.276C59.8992 120.252 59.9752 120.24 60.0552 120.24H61.8552C62.0472 120.24 62.1872 120.284 62.2752 120.372C62.3632 120.46 62.4072 120.6 62.4072 120.792V128.568C62.4072 128.672 62.3912 128.76 62.3592 128.832C62.3352 128.904 62.2952 128.964 62.2392 129.012L60.6792 130.308C60.6472 130.34 60.5952 130.368 60.5232 130.392C60.4592 130.416 60.3872 130.428 60.3072 130.428H58.5072C58.3152 130.428 58.1752 130.384 58.0872 130.296C57.9992 130.208 57.9552 130.068 57.9552 129.876V128.448L57.6912 128.124V128.568C57.6912 128.672 57.6752 128.76 57.6432 128.832C57.6192 128.904 57.5792 128.964 57.5232 129.012ZM70.3697 129.792C70.1217 130 69.8057 130.156 69.4217 130.26C69.0377 130.372 68.5857 130.428 68.0657 130.428H64.0217C63.8297 130.428 63.6897 130.384 63.6017 130.296C63.5137 130.208 63.4697 130.068 63.4697 129.876V122.1C63.4697 121.996 63.4817 121.908 63.5057 121.836C63.5377 121.764 63.5817 121.704 63.6377 121.656L65.1857 120.348C65.2257 120.316 65.2777 120.292 65.3417 120.276C65.4137 120.252 65.4897 120.24 65.5697 120.24H69.6137C70.6617 120.24 71.4337 120.452 71.9297 120.876C72.4337 121.3 72.6857 121.944 72.6857 122.808V126.552C72.6857 126.984 72.6217 127.364 72.4937 127.692C72.3657 128.012 72.1777 128.28 71.9297 128.496L70.3697 129.792ZM69.6137 129C70.6137 129 71.3537 128.8 71.8337 128.4C72.3217 128 72.5657 127.384 72.5657 126.552V122.808C72.5657 121.976 72.3217 121.36 71.8337 120.96C71.3537 120.56 70.6137 120.36 69.6137 120.36H65.5697C65.4177 120.36 65.3057 120.396 65.2337 120.468C65.1697 120.532 65.1377 120.64 65.1377 120.792V128.568C65.1377 128.72 65.1697 128.832 65.2337 128.904C65.3057 128.968 65.4177 129 65.5697 129H69.6137ZM66.4457 127.92V121.44H69.3497C69.7577 121.44 70.0857 121.484 70.3337 121.572C70.5897 121.66 70.7857 121.78 70.9217 121.932C71.0577 122.076 71.1497 122.252 71.1977 122.46C71.2457 122.66 71.2697 122.876 71.2697 123.108V126.288C71.2697 126.52 71.2457 126.736 71.1977 126.936C71.1577 127.136 71.0697 127.308 70.9337 127.452C70.7977 127.596 70.6017 127.712 70.3457 127.8C70.0897 127.88 69.7577 127.92 69.3497 127.92H66.4457ZM69.3497 121.56H66.5657V127.8H69.3497C69.7337 127.8 70.0417 127.764 70.2737 127.692C70.5137 127.612 70.6977 127.508 70.8257 127.38C70.9537 127.244 71.0377 127.084 71.0777 126.9C71.1257 126.708 71.1497 126.504 71.1497 126.288V123.108C71.1497 122.892 71.1257 122.688 71.0777 122.496C71.0297 122.304 70.9417 122.14 70.8137 122.004C70.6857 121.868 70.5017 121.76 70.2617 121.68C70.0297 121.6 69.7257 121.56 69.3497 121.56ZM67.8617 122.652H69.2897C69.4817 122.652 69.6217 122.7 69.7097 122.796C69.8057 122.884 69.8537 123.028 69.8537 123.228V126.144C69.8537 126.344 69.8057 126.492 69.7097 126.588C69.6217 126.684 69.4817 126.732 69.2897 126.732H67.8617V122.652ZM68.1857 124.536C68.1857 124.432 68.1697 124.344 68.1377 124.272C68.1057 124.2 68.0537 124.148 67.9817 124.116V126.612H68.1857V124.536ZM76.4981 125.364V125.736H81.1781V125.364C81.1781 125.148 81.1581 124.948 81.1181 124.764C81.0861 124.58 81.0421 124.408 80.9861 124.248L80.1581 122.292C80.0701 122.084 79.9781 121.912 79.8821 121.776C79.7861 121.632 79.6261 121.56 79.4021 121.56H78.2261C77.9861 121.56 77.8181 121.632 77.7221 121.776C77.6261 121.912 77.5381 122.08 77.4581 122.28L76.6901 124.248C76.6341 124.408 76.5861 124.58 76.5461 124.764C76.5141 124.948 76.4981 125.148 76.4981 125.364ZM78.4181 122.88C78.4501 122.808 78.4821 122.756 78.5141 122.724C78.5541 122.692 78.5981 122.676 78.6461 122.676H78.9461C78.9941 122.676 79.0341 122.692 79.0661 122.724C79.1061 122.756 79.1421 122.808 79.1741 122.88L79.7381 124.704H77.8541L78.4181 122.88ZM81.1781 127.92V125.856H76.4981V127.92H76.3781V125.364C76.3781 125.14 76.3941 124.936 76.4261 124.752C76.4661 124.56 76.5181 124.376 76.5821 124.2L77.3501 122.232C77.4381 122.008 77.5381 121.82 77.6501 121.668C77.7621 121.516 77.9541 121.44 78.2261 121.44H79.4021C79.6661 121.44 79.8501 121.516 79.9541 121.668C80.0661 121.82 80.1701 122.012 80.2661 122.244L81.0941 124.2C81.1581 124.376 81.2061 124.56 81.2381 124.752C81.2781 124.936 81.2981 125.14 81.2981 125.364V127.92H81.1781ZM77.7341 128.568V126.888H79.8581V128.568C79.8581 128.72 79.8941 128.832 79.9661 128.904C80.0461 128.968 80.1661 129 80.3261 129H82.1381C82.2901 129 82.3981 128.968 82.4621 128.904C82.5341 128.832 82.5701 128.72 82.5701 128.568V125.4C82.5701 125.16 82.5301 124.884 82.4501 124.572C82.3781 124.26 82.2621 123.896 82.1021 123.48L81.0581 120.756C81.0101 120.62 80.9341 120.52 80.8301 120.456C80.7341 120.392 80.6101 120.36 80.4581 120.36H77.2301C77.0701 120.36 76.9381 120.392 76.8341 120.456C76.7381 120.52 76.6661 120.62 76.6181 120.756L75.5741 123.48C75.4141 123.896 75.2941 124.26 75.2141 124.572C75.1421 124.884 75.1061 125.16 75.1061 125.4V128.568C75.1061 128.72 75.1381 128.832 75.2021 128.904C75.2741 128.968 75.3861 129 75.5381 129H77.3021C77.4541 129 77.5621 128.968 77.6261 128.904C77.6981 128.832 77.7341 128.72 77.7341 128.568ZM76.1261 130.308C76.0941 130.34 76.0421 130.368 75.9701 130.392C75.9061 130.416 75.8341 130.428 75.7541 130.428H73.9901C73.7981 130.428 73.6581 130.384 73.5701 130.296C73.4821 130.208 73.4381 130.068 73.4381 129.876V126.708C73.4381 126.46 73.4741 126.18 73.5461 125.868C73.6261 125.548 73.7501 125.172 73.9181 124.74L74.9501 122.028C74.9741 121.956 75.0021 121.896 75.0341 121.848C75.0741 121.792 75.1141 121.744 75.1541 121.704L75.1661 121.692L76.7021 120.408C76.7661 120.352 76.8421 120.312 76.9301 120.288C77.0181 120.256 77.1181 120.24 77.2301 120.24H80.4581C80.6421 120.24 80.7901 120.28 80.9021 120.36C81.0221 120.432 81.1101 120.548 81.1661 120.708L82.2101 123.432C82.3781 123.864 82.4981 124.24 82.5701 124.56C82.6501 124.872 82.6901 125.152 82.6901 125.4V128.568C82.6901 128.672 82.6741 128.76 82.6421 128.832C82.6181 128.904 82.5781 128.964 82.5221 129.012L80.9621 130.308C80.9301 130.34 80.8781 130.368 80.8061 130.392C80.7421 130.416 80.6701 130.428 80.5901 130.428H78.7781C78.5781 130.428 78.4301 130.38 78.3341 130.284C78.2381 130.196 78.1901 130.06 78.1901 129.876V128.316H77.8541V128.568C77.8541 128.672 77.8381 128.76 77.8061 128.832C77.7821 128.904 77.7421 128.964 77.6861 129.012L76.1261 130.308ZM89.8348 130.428H87.9748C87.7828 130.428 87.6428 130.384 87.5548 130.296C87.4668 130.208 87.4228 130.068 87.4228 129.876V122.1C87.4228 121.996 87.4348 121.908 87.4588 121.836C87.4908 121.764 87.5348 121.704 87.5908 121.656L89.1388 120.348C89.1788 120.316 89.2308 120.292 89.2948 120.276C89.3668 120.252 89.4428 120.24 89.5228 120.24H93.1948C93.7628 120.24 94.2388 120.3 94.6228 120.42C95.0068 120.54 95.3108 120.708 95.5348 120.924C95.7588 121.14 95.9148 121.4 96.0028 121.704C96.0988 122.008 96.1468 122.34 96.1468 122.7V124.236C96.1468 124.62 96.0908 124.972 95.9788 125.292C95.8748 125.604 95.6908 125.872 95.4268 126.096L93.8668 127.392C93.6668 127.56 93.4068 127.7 93.0868 127.812C92.7748 127.916 92.3908 127.976 91.9348 127.992V128.568C91.9348 128.672 91.9188 128.76 91.8868 128.832C91.8628 128.904 91.8228 128.964 91.7668 129.012L90.2068 130.308C90.1748 130.34 90.1228 130.368 90.0508 130.392C89.9868 130.416 89.9148 130.428 89.8348 130.428ZM91.3828 129C91.5348 129 91.6428 128.968 91.7068 128.904C91.7788 128.832 91.8148 128.72 91.8148 128.568V126.576H93.1948C94.2828 126.576 95.0268 126.36 95.4268 125.928C95.8268 125.496 96.0268 124.932 96.0268 124.236V122.7C96.0268 122.004 95.8268 121.44 95.4268 121.008C95.0268 120.576 94.2828 120.36 93.1948 120.36H89.5228C89.3708 120.36 89.2588 120.396 89.1868 120.468C89.1228 120.532 89.0908 120.64 89.0908 120.792V128.568C89.0908 128.72 89.1228 128.832 89.1868 128.904C89.2588 128.968 89.3708 129 89.5228 129H91.3828ZM93.0268 125.556H90.5548V127.92H90.4348V121.44H93.0268C93.4028 121.44 93.7068 121.484 93.9388 121.572C94.1788 121.652 94.3628 121.764 94.4908 121.908C94.6188 122.052 94.7068 122.224 94.7548 122.424C94.8028 122.624 94.8268 122.84 94.8268 123.072V123.96C94.8268 124.192 94.8028 124.408 94.7548 124.608C94.7068 124.8 94.6188 124.968 94.4908 125.112C94.3628 125.248 94.1788 125.356 93.9388 125.436C93.7068 125.516 93.4028 125.556 93.0268 125.556ZM90.5548 125.436H93.0268C93.3788 125.436 93.6628 125.4 93.8788 125.328C94.1028 125.256 94.2748 125.156 94.3948 125.028C94.5148 124.892 94.5948 124.736 94.6348 124.56C94.6828 124.376 94.7068 124.176 94.7068 123.96V123.072C94.7068 122.856 94.6828 122.656 94.6348 122.472C94.5948 122.288 94.5148 122.128 94.3948 121.992C94.2748 121.856 94.1028 121.752 93.8788 121.68C93.6628 121.6 93.3788 121.56 93.0268 121.56H90.5548V125.436ZM91.7908 122.604H92.8708C93.1028 122.604 93.2548 122.664 93.3268 122.784C93.3988 122.904 93.4348 123.04 93.4348 123.192V123.828C93.4348 123.98 93.3988 124.116 93.3268 124.236C93.2548 124.356 93.1028 124.416 92.8708 124.416H91.7908V122.604ZM103.47 130.428H97.3615C97.1695 130.428 97.0295 130.384 96.9415 130.296C96.8535 130.208 96.8095 130.068 96.8095 129.876V122.1C96.8095 121.996 96.8215 121.908 96.8455 121.836C96.8775 121.764 96.9215 121.704 96.9775 121.656L98.5255 120.348C98.5655 120.316 98.6175 120.292 98.6815 120.276C98.7535 120.252 98.8295 120.24 98.9095 120.24H100.77C100.962 120.24 101.102 120.284 101.19 120.372C101.278 120.46 101.322 120.6 101.322 120.792V125.676L101.346 125.652L102.894 124.344C102.934 124.312 102.986 124.288 103.05 124.272C103.122 124.248 103.198 124.236 103.278 124.236H105.018C105.21 124.236 105.35 124.28 105.438 124.368C105.526 124.456 105.57 124.596 105.57 124.788V128.568C105.57 128.672 105.554 128.76 105.522 128.832C105.498 128.904 105.458 128.964 105.402 129.012L103.842 130.308C103.81 130.34 103.758 130.368 103.686 130.392C103.622 130.416 103.55 130.428 103.47 130.428ZM105.018 129C105.17 129 105.278 128.968 105.342 128.904C105.414 128.832 105.45 128.72 105.45 128.568V124.788C105.45 124.636 105.414 124.528 105.342 124.464C105.278 124.392 105.17 124.356 105.018 124.356H103.278C103.126 124.356 103.014 124.392 102.942 124.464C102.878 124.528 102.846 124.636 102.846 124.788V126.732H101.202V120.792C101.202 120.64 101.166 120.532 101.094 120.468C101.03 120.396 100.922 120.36 100.77 120.36H98.9095C98.7575 120.36 98.6455 120.396 98.5735 120.468C98.5095 120.532 98.4775 120.64 98.4775 120.792V128.568C98.4775 128.72 98.5095 128.832 98.5735 128.904C98.6455 128.968 98.7575 129 98.9095 129H105.018ZM99.7855 127.92V121.44H99.9055V127.8H104.082V125.436H104.202V127.92H99.7855ZM110.117 130.608C109.341 130.608 108.701 130.524 108.197 130.356C107.701 130.196 107.313 129.98 107.033 129.708C106.753 129.436 106.557 129.124 106.445 128.772C106.341 128.42 106.289 128.056 106.289 127.68V122.1C106.289 121.996 106.301 121.908 106.325 121.836C106.357 121.764 106.401 121.704 106.457 121.656L108.005 120.348C108.045 120.316 108.097 120.292 108.161 120.276C108.233 120.252 108.309 120.24 108.389 120.24H110.273C110.465 120.24 110.605 120.284 110.693 120.372C110.781 120.46 110.825 120.6 110.825 120.792V126.264C110.825 126.336 110.837 126.404 110.861 126.468C110.885 126.524 110.937 126.568 111.017 126.6V122.1C111.017 121.996 111.029 121.908 111.053 121.836C111.077 121.764 111.113 121.708 111.161 121.668L111.173 121.656L112.733 120.348C112.773 120.316 112.825 120.292 112.889 120.276C112.953 120.252 113.029 120.24 113.117 120.24H114.941C115.133 120.24 115.273 120.284 115.361 120.372C115.449 120.46 115.493 120.6 115.493 120.792V126.732C115.493 127.1 115.441 127.44 115.337 127.752C115.233 128.064 115.045 128.332 114.773 128.556L113.213 129.852C112.933 130.092 112.545 130.276 112.049 130.404C111.553 130.54 110.909 130.608 110.117 130.608ZM115.373 126.732V120.792C115.373 120.64 115.337 120.532 115.265 120.468C115.201 120.396 115.093 120.36 114.941 120.36H113.117C112.965 120.36 112.853 120.396 112.781 120.468C112.717 120.532 112.685 120.64 112.685 120.792V126.264C112.685 126.424 112.625 126.56 112.505 126.672C112.385 126.776 112.113 126.828 111.689 126.828C111.273 126.828 111.005 126.776 110.885 126.672C110.765 126.56 110.705 126.424 110.705 126.264V120.792C110.705 120.64 110.669 120.532 110.597 120.468C110.533 120.396 110.425 120.36 110.273 120.36H108.389C108.237 120.36 108.125 120.396 108.053 120.468C107.989 120.532 107.957 120.64 107.957 120.792V126.732C107.957 127.1 108.009 127.436 108.113 127.74C108.225 128.036 108.417 128.292 108.689 128.508C108.969 128.716 109.349 128.88 109.829 129C110.309 129.12 110.921 129.18 111.665 129.18C112.409 129.18 113.021 129.12 113.501 129C113.981 128.88 114.357 128.716 114.629 128.508C114.909 128.292 115.101 128.036 115.205 127.74C115.317 127.436 115.373 127.1 115.373 126.732ZM109.277 121.44H109.397V126.444C109.397 126.892 109.553 127.256 109.865 127.536C110.185 127.808 110.789 127.944 111.677 127.944C112.565 127.944 113.169 127.808 113.489 127.536C113.809 127.256 113.969 126.892 113.969 126.444V121.44H114.089V126.444C114.089 126.924 113.921 127.316 113.585 127.62C113.249 127.916 112.613 128.064 111.677 128.064C110.741 128.064 110.105 127.916 109.769 127.62C109.441 127.316 109.277 126.924 109.277 126.444V121.44ZM116.833 130.428C116.641 130.428 116.501 130.384 116.413 130.296C116.325 130.208 116.281 130.068 116.281 129.876V128.472C116.281 128.368 116.293 128.28 116.317 128.208C116.349 128.136 116.393 128.076 116.449 128.028L117.649 127.02C117.225 126.892 116.889 126.676 116.641 126.372C116.401 126.06 116.281 125.616 116.281 125.04V123.78C116.281 123.42 116.341 123.1 116.461 122.82C116.581 122.54 116.753 122.304 116.977 122.112L118.537 120.804C118.753 120.628 119.021 120.492 119.341 120.396C119.661 120.292 120.025 120.24 120.433 120.24H123.793C123.985 120.24 124.125 120.284 124.213 120.372C124.301 120.46 124.345 120.6 124.345 120.792V122.22C124.345 122.324 124.329 122.412 124.297 122.484C124.273 122.556 124.233 122.616 124.177 122.664L123.097 123.564C123.601 123.676 124.005 123.888 124.309 124.2C124.621 124.504 124.777 124.98 124.777 125.628V126.888C124.777 127.248 124.717 127.568 124.597 127.848C124.477 128.128 124.301 128.364 124.069 128.556L122.521 129.852C122.297 130.036 122.025 130.176 121.705 130.272C121.385 130.376 121.025 130.428 120.625 130.428H116.833ZM122.173 129C122.941 129 123.545 128.82 123.985 128.46C124.433 128.092 124.657 127.568 124.657 126.888V125.628C124.657 124.956 124.485 124.476 124.141 124.188C123.797 123.9 123.345 123.716 122.785 123.636L120.997 123.396C120.893 123.388 120.813 123.348 120.757 123.276C120.701 123.204 120.673 123.116 120.673 123.012C120.673 122.908 120.701 122.824 120.757 122.76C120.813 122.688 120.893 122.652 120.997 122.652H123.793C123.945 122.652 124.053 122.62 124.117 122.556C124.189 122.484 124.225 122.372 124.225 122.22V120.792C124.225 120.64 124.189 120.532 124.117 120.468C124.053 120.396 123.945 120.36 123.793 120.36H120.433C119.657 120.36 119.049 120.544 118.609 120.912C118.169 121.272 117.949 121.792 117.949 122.472V123.732C117.949 124.404 118.117 124.884 118.453 125.172C118.797 125.46 119.249 125.644 119.809 125.724L121.609 125.976C121.713 125.984 121.789 126.02 121.837 126.084C121.893 126.148 121.921 126.248 121.921 126.384C121.921 126.48 121.893 126.564 121.837 126.636C121.789 126.7 121.713 126.732 121.609 126.732H118.381C118.229 126.732 118.117 126.768 118.045 126.84C117.981 126.904 117.949 127.012 117.949 127.164V128.568C117.949 128.72 117.981 128.832 118.045 128.904C118.117 128.968 118.229 129 118.381 129H122.173ZM123.145 121.44V121.56H120.481C120.145 121.56 119.877 121.652 119.677 121.836C119.477 122.02 119.377 122.252 119.377 122.532V123.516C119.377 123.796 119.433 123.992 119.545 124.104C119.657 124.216 119.805 124.288 119.989 124.32L122.521 124.836C122.761 124.884 122.957 124.988 123.109 125.148C123.269 125.308 123.349 125.596 123.349 126.012V126.708C123.349 127.06 123.229 127.352 122.989 127.584C122.749 127.808 122.425 127.92 122.017 127.92H119.029V127.8H122.017C122.385 127.8 122.677 127.7 122.893 127.5C123.117 127.292 123.229 127.028 123.229 126.708V126.012C123.229 125.636 123.161 125.38 123.025 125.244C122.897 125.1 122.721 125.004 122.497 124.956L119.965 124.44C119.757 124.4 119.585 124.32 119.449 124.2C119.321 124.072 119.257 123.844 119.257 123.516V122.532C119.257 122.212 119.369 121.952 119.593 121.752C119.817 121.544 120.113 121.44 120.481 121.44H123.145Z" fill="#3C1B1F"/>
</svg>
